HIERARCHY
ROOT Hips
{
	OFFSET 0.000000 0.000000 0.000000
	CHANNELS 6 Xposition Yposition Zposition Zrotation Yrotation Xrotation 
	JOINT LowerBack
	{
		OFFSET 0.000000 0.000000 0.000000
		CHANNELS 3 Zrotation Yrotation Xrotation
		JOINT Spine
		{
			OFFSET 0.028270 2.035590 -0.193380
			CHANNELS 3 Zrotation Yrotation Xrotation
			JOINT Spine1
			{
				OFFSET 0.056720 2.048850 -0.042750
				CHANNELS 3 Zrotation Yrotation Xrotation
				JOINT Neck
				{
					OFFSET 0.000000 0.000000 0.000000
					CHANNELS 3 Zrotation Yrotation Xrotation
					JOINT Neck1
					{
						OFFSET -0.054170 1.746240 0.172020
						CHANNELS 3 Zrotation Yrotation Xrotation
						JOINT Head
						{
							OFFSET 0.104070 1.761360 -0.123970
							CHANNELS 3 Zrotation Yrotation Xrotation
							End Site
							{
								OFFSET 0.000000 0.000000 0.000000
							}
						}
					}
				}
				JOINT LeftShoulder
				{
					OFFSET 0.000000 0.000000 0.000000
					CHANNELS 3 Zrotation Yrotation Xrotation
					JOINT LeftArm
					{
						OFFSET 3.362410 1.200890 -0.311210
						CHANNELS 3 Zrotation Yrotation Xrotation
						JOINT LeftForeArm
						{
							OFFSET 4.983000 -0.000000 -0.000000
							CHANNELS 3 Zrotation Yrotation Xrotation
							JOINT LeftHand
							{
								OFFSET 3.483560 -0.000000 -0.000000
								CHANNELS 3 Zrotation Yrotation Xrotation
								JOINT LeftFingerBase
								{
									OFFSET 0.000000 0.000000 0.000000
									CHANNELS 3 Zrotation Yrotation Xrotation
									JOINT LeftHandIndex1
									{
										OFFSET 0.715260 -0.000000 -0.000000
										CHANNELS 3 Zrotation Yrotation Xrotation
										End Site
										{
											OFFSET 0.000000 0.000000 0.000000
										}
									}
								}
								JOINT LThumb
								{
									OFFSET 0.000000 0.000000 0.000000
									CHANNELS 3 Zrotation Yrotation Xrotation
									End Site
									{
										OFFSET 0.000000 0.000000 0.000000
									}
								}
							}
						}
					}
				}
				JOINT RightShoulder
				{
					OFFSET 0.000000 0.000000 0.000000
					CHANNELS 3 Zrotation Yrotation Xrotation
					JOINT RightArm
					{
						OFFSET -3.136600 1.374050 -0.404650
						CHANNELS 3 Zrotation Yrotation Xrotation
						JOINT RightForeArm
						{
							OFFSET -5.241900 -0.000000 -0.000000
							CHANNELS 3 Zrotation Yrotation Xrotation
							JOINT RightHand
							{
								OFFSET -3.444170 -0.000000 -0.000000
								CHANNELS 3 Zrotation Yrotation Xrotation
								JOINT RightFingerBase
								{
									OFFSET 0.000000 0.000000 0.000000
									CHANNELS 3 Zrotation Yrotation Xrotation
									JOINT RightHandIndex1
									{
										OFFSET -0.622530 -0.000000 -0.000000
										CHANNELS 3 Zrotation Yrotation Xrotation
										End Site
										{
											OFFSET 0.000000 0.000000 0.000000
										}
									}
								}
								JOINT RThumb
								{
									OFFSET 0.000000 0.000000 0.000000
									CHANNELS 3 Zrotation Yrotation Xrotation
									End Site
									{
										OFFSET 0.000000 0.000000 0.000000
									}
								}
							}
						}
					}
				}
			}
		}
	}
}
}
MOTION
Frames: 17
Frame Time: 0.008333
4.136388 17.252671 1.183688 99.320239 86.748239 97.809797 -0.223513 -1.857510 -1.845956 -0.434388 -1.898764 -2.623695 -4.802628 -1.926374 2.616359 7.684119 -16.018404 -9.629760 -1.961424 -0.128660 -0.486796 0.000000 0.000000 0.000000 -1.279997 19.194223 0.979498 -50.249217 12.732862 -3.537091 -4.509222 -25.301702 -0.007730 -1.940191 2.234702 -0.034215 -0.189336 -0.044782 -0.000000 0.000000 0.000000 0.000000 0.000000 0.000000 0.000000 10.768834 -12.038405 -0.066990 56.625547 2.439161 -2.650197 3.388028 33.110270 0.013393 5.107483 3.814482 0.171711 0.077852 -0.078787 -0.000000 0.000000 0.000000 0.000000 0.000000 0.000000 0.000000 
4.264660 17.243152 1.194610 95.556421 86.661430 94.199038 -0.419262 -1.738454 -1.853607 -0.463998 -1.765364 -2.629409 -4.752604 -1.796612 2.613641 7.518770 -15.725760 -9.620186 -1.942582 -0.127243 -0.485641 0.000000 0.000000 0.000000 -1.495825 19.605567 0.967957 -50.908313 13.035635 -3.982411 -4.538904 -24.893208 -0.007834 -1.841573 2.270576 -0.032834 -0.189221 -0.045712 -0.000000 0.000000 0.000000 0.000000 0.000000 0.000000 0.000000 10.464193 -11.641531 -0.059308 56.030492 2.895126 -2.079625 3.308581 33.846434 0.013599 4.995905 3.927260 0.172917 0.076196 -0.082312 -0.000000 0.000000 0.000000 0.000000 0.000000 0.000000 0.000000 
4.393467 17.232883 1.203417 91.823569 86.586734 90.608586 -0.588375 -1.616324 -1.860284 -0.487683 -1.630624 -2.634722 -4.699467 -1.665484 2.612513 7.346836 -15.440212 -9.608002 -1.921813 -0.125711 -0.483785 0.000000 0.000000 0.000000 -1.714673 20.014949 0.955491 -51.597313 13.352786 -4.437669 -4.564988 -24.508555 -0.008006 -1.763392 2.325252 -0.032054 -0.188847 -0.046640 -0.000000 0.000000 0.000000 0.000000 0.000000 0.000000 0.000000 10.146704 -11.253861 -0.051703 55.419019 3.343207 -1.574942 3.229330 34.556977 0.013784 4.882675 4.033259 0.173624 0.074486 -0.086017 -0.000000 0.000000 0.000000 0.000000 0.000000 0.000000 0.000000 
4.522916 17.221893 1.210235 88.013664 86.522768 86.930051 -0.731260 -1.490534 -1.866443 -0.505685 -1.493974 -2.639732 -4.644215 -1.532401 2.612941 7.170750 -15.162955 -9.593645 -1.899383 -0.124080 -0.481324 0.000000 0.000000 0.000000 -1.935660 20.421397 0.941996 -52.313519 13.689044 -4.897712 -4.587351 -24.151001 -0.008250 -1.705762 2.399982 -0.031875 -0.188228 -0.047611 -0.000000 0.000000 0.000000 0.000000 0.000000 0.000000 0.000000 9.820514 -10.876372 -0.043663 54.792633 3.785794 -1.136627 3.151151 35.234572 0.013945 4.771882 4.130515 0.173929 0.072711 -0.089866 -0.000000 0.000000 0.000000 0.000000 0.000000 0.000000 0.000000 
4.653173 17.210224 1.215259 84.054273 86.464819 83.090842 -0.851458 -1.361416 -1.872380 -0.518932 -1.355544 -2.644741 -4.588073 -1.397476 2.613921 6.993950 -14.896189 -9.577145 -1.875834 -0.122401 -0.478218 0.000000 0.000000 0.000000 -2.159121 20.817129 0.927285 -53.053606 14.058873 -5.364980 -4.605933 -23.830631 -0.008571 -1.669890 2.494801 -0.032398 -0.187371 -0.048690 -0.000000 0.000000 0.000000 0.000000 0.000000 0.000000 0.000000 9.491702 -10.511233 -0.034145 54.151896 4.226677 -0.760159 3.074756 35.873472 0.014078 4.665740 4.215382 0.173632 0.070885 -0.093806 -0.000000 0.000000 0.000000 0.000000 0.000000 0.000000 0.000000 
4.784375 17.197979 1.218632 79.876406 86.408732 79.025420 -0.950965 -1.228743 -1.881900 -0.528182 -1.215134 -2.649890 -4.532582 -1.260473 2.617645 6.820954 -14.637909 -9.560999 -1.851553 -0.120667 -0.475151 0.000000 0.000000 0.000000 -2.382080 21.217848 0.911395 -53.811325 14.442855 -5.816829 -4.620579 -23.535508 -0.008938 -1.647104 2.603617 -0.033320 -0.186301 -0.049873 -0.000000 0.000000 0.000000 0.000000 0.000000 0.000000 0.000000 9.167769 -10.156199 -0.023791 53.497078 4.666274 -0.446482 3.000938 36.468002 0.014195 4.570595 4.293184 0.173335 0.068954 -0.097810 -0.000000 0.000000 0.000000 0.000000 0.000000 0.000000 0.000000 
4.916712 17.185262 1.220654 75.484822 86.346553 74.739389 -1.035765 -1.093701 -1.896091 -0.535015 -1.073588 -2.655551 -4.479234 -1.122214 2.623301 6.656074 -14.390150 -9.545677 -1.827342 -0.118941 -0.472205 0.000000 0.000000 0.000000 -2.604150 21.616978 0.894125 -54.581907 14.853171 -6.255837 -4.631431 -23.272613 -0.009339 -1.636911 2.722173 -0.034744 -0.185027 -0.051213 -0.000000 0.000000 0.000000 0.000000 0.000000 0.000000 0.000000 8.856973 -9.813492 -0.011689 52.828399 5.108849 -0.188034 2.930144 37.013965 0.014296 4.486275 4.361876 0.173035 0.066950 -0.101825 -0.000000 0.000000 0.000000 0.000000 0.000000 0.000000 0.000000 
5.050291 17.172179 1.221556 70.895697 86.272448 70.251851 -1.108835 -0.956852 -1.917501 -0.540445 -0.931382 -2.661851 -4.429343 -0.983141 2.632150 6.503114 -14.151950 -9.532968 -1.803647 -0.117234 -0.469862 0.000000 0.000000 0.000000 -2.823026 22.023002 0.875503 -55.360190 15.278168 -6.669131 -4.638508 -23.033009 -0.009738 -1.631933 2.841781 -0.036168 -0.183569 -0.052701 -0.000000 0.000000 0.000000 0.000000 0.000000 0.000000 0.000000 8.565782 -9.482264 0.001873 52.147474 5.555343 0.017620 2.862762 37.507580 0.014385 4.413683 4.425181 0.172833 0.064870 -0.105826 -0.000000 0.000000 0.000000 0.000000 0.000000 0.000000 0.000000 
5.185196 17.158911 1.221774 66.298333 86.177201 65.752877 -1.182155 -0.822041 -1.947392 -0.547440 -0.791613 -2.669547 -4.384617 -0.846332 2.641589 6.367150 -13.926425 -9.521930 -1.781907 -0.115685 -0.467797 0.000000 0.000000 0.000000 -3.039687 22.416049 0.855461 -56.141922 15.745533 -7.080476 -4.642586 -22.832050 -0.010131 -1.637676 2.959182 -0.037892 -0.181932 -0.054395 -0.000000 0.000000 0.000000 0.000000 0.000000 0.000000 0.000000 8.305330 -9.166727 0.018248 51.455087 6.010273 0.179848 2.798975 37.947450 0.014457 4.348711 4.478274 0.172433 0.062807 -0.109740 -0.000000 0.000000 0.000000 0.000000 0.000000 0.000000 0.000000 
5.321524 17.145586 1.221286 61.716731 86.062274 61.269637 -1.252262 -0.688693 -1.987984 -0.555587 -0.654036 -2.678226 -4.345384 -0.711498 2.654826 6.248328 -13.709811 -9.515161 -1.761724 -0.114218 -0.466778 0.000000 0.000000 0.000000 -3.249668 22.818404 0.834510 -56.923815 16.217299 -7.464285 -4.643649 -22.640213 -0.010463 -1.640374 3.062080 -0.039416 -0.180149 -0.056194 -0.000000 0.000000 0.000000 0.000000 0.000000 0.000000 0.000000 8.074517 -8.863192 0.035679 50.757481 6.469696 0.294020 2.738814 38.332274 0.014525 4.292020 4.529525 0.172231 0.060726 -0.113595 -0.000000 0.000000 0.000000 0.000000 0.000000 0.000000 0.000000 
5.459247 17.132362 1.220312 57.308528 85.926570 56.961512 -1.324711 -0.559446 -2.040309 -0.566304 -0.520954 -2.688290 -4.312320 -0.580935 2.670457 6.148064 -13.503335 -9.511975 -1.743770 -0.112899 -0.466597 0.000000 0.000000 0.000000 -3.453680 23.218665 0.812984 -57.703857 16.702517 -7.835930 -4.642384 -22.458985 -0.010725 -1.641548 3.146881 -0.040538 -0.178237 -0.058091 -0.000000 0.000000 0.000000 0.000000 0.000000 0.000000 0.000000 7.876950 -8.573887 0.054456 50.059534 6.933359 0.363786 2.682263 38.662454 0.014581 4.238491 4.578154 0.172128 0.058706 -0.117372 -0.000000 0.000000 0.000000 0.000000 0.000000 0.000000 0.000000 
5.598288 17.119332 1.218920 53.159676 85.773140 52.914555 -1.400445 -0.435304 -2.103510 -0.579834 -0.393275 -2.699353 -4.285133 -0.455533 2.689007 6.065130 -13.306202 -9.512793 -1.727789 -0.111698 -0.467413 0.000000 0.000000 0.000000 -3.648745 23.619148 0.791692 -58.482657 17.187475 -8.199567 -4.639354 -22.272709 -0.010898 -1.637528 3.208174 -0.041360 -0.176228 -0.059997 -0.000000 0.000000 0.000000 0.000000 0.000000 0.000000 0.000000 7.709876 -8.298642 0.073703 49.369364 7.397299 0.387018 2.629050 38.940366 0.014629 4.185446 4.625154 0.171825 0.056769 -0.121078 -0.000000 0.000000 0.000000 0.000000 0.000000 0.000000 0.000000 
5.738562 17.106552 1.217055 49.313046 85.606246 49.171393 -1.479210 -0.316674 -2.176125 -0.596015 -0.271357 -2.711108 -4.263215 -0.335649 2.710196 5.996981 -13.118082 -9.517277 -1.713390 -0.110582 -0.469167 0.000000 0.000000 0.000000 -3.833727 24.017255 0.771443 -59.261988 17.664121 -8.563619 -4.635077 -22.070586 -0.010974 -1.626942 3.244529 -0.041582 -0.174149 -0.061844 -0.000000 0.000000 0.000000 0.000000 0.000000 0.000000 0.000000 7.568056 -8.037436 0.092781 48.695674 7.856273 0.361699 2.578878 39.169905 0.014664 4.129713 4.671000 0.171322 0.054945 -0.124738 -0.000000 0.000000 0.000000 0.000000 0.000000 0.000000 0.000000 
5.879921 17.094089 1.214657 45.767561 85.429693 45.729955 -1.560060 -0.203208 -2.255884 -0.614461 -0.154818 -2.723187 -4.245920 -0.220902 2.733359 5.940792 -12.939434 -9.524940 -1.700145 -0.109521 -0.471762 0.000000 0.000000 0.000000 -4.007894 24.408221 0.752981 -60.043820 18.128311 -8.939953 -4.630100 -21.845709 -0.010967 -1.610922 3.257698 -0.041402 -0.172030 -0.063577 -0.000000 0.000000 0.000000 0.000000 0.000000 0.000000 0.000000 7.445830 -7.790568 0.111299 48.046762 8.305354 0.287872 2.531477 39.355850 0.014686 4.068427 4.715070 0.170520 0.053265 -0.128374 -0.000000 0.000000 0.000000 0.000000 0.000000 0.000000 0.000000 
6.022236 17.081915 1.211611 42.475138 85.246342 42.539794 -1.639685 -0.093492 -2.338860 -0.634208 -0.042310 -2.734896 -4.232204 -0.109929 2.758046 5.892679 -12.770367 -9.535434 -1.687243 -0.108446 -0.475148 0.000000 0.000000 0.000000 -4.170507 24.789764 0.737131 -60.831173 18.572556 -9.337321 -4.624825 -21.590445 -0.010886 -1.590890 3.251438 -0.040922 -0.169898 -0.065139 -0.000000 0.000000 0.000000 0.000000 0.000000 0.000000 0.000000 7.334788 -7.557515 0.128782 47.430908 8.737766 0.164879 2.486539 39.504894 0.014692 4.000983 4.756537 0.169316 0.051727 -0.132012 -0.000000 0.000000 0.000000 0.000000 0.000000 0.000000 0.000000 
6.165376 17.069985 1.207770 39.367127 85.057471 39.527925 -1.713881 0.014510 -2.419684 -0.654149 0.068121 -2.745274 -4.221191 -0.000736 2.783937 5.849299 -12.611293 -9.548678 -1.673870 -0.107284 -0.479349 0.000000 0.000000 0.000000 -4.319964 25.161249 0.724619 -61.626468 18.989108 -9.759910 -4.619461 -21.298917 -0.010757 -1.568468 3.231491 -0.040040 -0.167769 -0.066491 -0.000000 0.000000 0.000000 0.000000 0.000000 0.000000 0.000000 7.227406 -7.337625 0.144805 46.854861 9.146641 -0.006406 2.443707 39.625348 0.014683 3.928359 4.793984 0.167612 0.050308 -0.135672 -0.000000 0.000000 0.000000 0.000000 0.000000 0.000000 0.000000 
6.309301 17.058212 1.203009 36.380739 84.863106 36.627471 -1.778466 0.122753 -2.493823 -0.673223 0.178307 -2.753622 -4.212237 0.108547 2.810296 5.808126 -12.463287 -9.564436 -1.659432 -0.105986 -0.484327 0.000000 0.000000 0.000000 -4.456429 25.519837 0.715871 -62.430642 19.376416 -10.211492 -4.614131 -20.973005 -0.010607 -1.547759 3.205756 -0.039259 -0.165654 -0.067629 -0.000000 0.000000 0.000000 0.000000 0.000000 0.000000 0.000000 7.118181 -7.130761 0.159383 46.321779 9.526644 -0.221243 2.402742 39.725688 0.014662 3.852924 4.825705 0.165609 0.048976 -0.139355 -0.000000 0.000000 0.000000 0.000000 0.000000 0.000000 0.000000 
